#!OML:ASF E:\acrobat2\Project_11_07_03\Capture day 1\Session 1\Acrobat.ASF
:FULLY-SPECIFIED
:DEGREES
66
root 10.8578 17.9632 -30.131 29.7993 -87.2846 -26.2663
lowerback -7.63313 0.39962 1.75486
upperback -2.33 0.368055 -1.04328
thorax 1.88998 0.159309 -2.02925
lowerneck -2.04841 -1.03716 -0.0866653
upperneck 1.11786 -1.47103 4.04628
head 0.718249 -0.707084 1.24276
rclavicle 4.96962e-017 2.78299e-015
rhumerus -12.2053 -32.1954 -10.0268
rradius 19.4546
rwrist 19.726
rhand -12.7164 -46.4509
rfingers 7.12502
rthumb 13.3665 -76.0021
lclavicle 4.96962e-017 2.78299e-015
lhumerus 1.08407 11.6501 9.06524
lradius 20.0103
lwrist 4.65241
lhand -6.50677 -5.28792
lfingers 7.12502
lthumb 19.3451 23.7698
rfemur 9.77831 15.7692 14.588
rtibia -2.79967
rfoot -27.0877 -31.5531
rtoes 2.05019
lfemur 9.04212 -8.70935 -5.09264
ltibia -3.20274
lfoot -28.5386 7.7121
ltoes 31.0657
67
root 10.8638 17.965 -30.1327 28.9049 -87.3156 -25.2964
lowerback -7.63655 0.341228 1.66588
upperback -2.35872 0.295325 -1.00294
thorax 1.85818 0.122117 -1.94414
lowerneck -2.05026 -0.97755 -0.161004
upperneck 1.11023 -1.38706 3.99154
head 0.714425 -0.665574 1.23933
rclavicle -1.88845e-014 1.15295e-014
rhumerus -11.9485 -32.1199 -10.1463
rradius 19.4022
rwrist 19.8002
rhand -12.543 -46.4693
rfingers 7.12502
rthumb 13.5337 -76.0095
lclavicle -1.88845e-014 1.15295e-014
lhumerus 0.870939 11.2008 8.91667
lradius 20.0093
lwrist 5.09288
lhand -6.52229 -5.24425
lfingers 7.12502
lthumb 19.3302 23.815
rfemur 9.6242 15.6784 14.4523
rtibia -2.73841
rfoot -26.7787 -31.6144
rtoes 1.02977
lfemur 8.85774 -8.25174 -4.99837
ltibia -3.08208
lfoot -28.0695 7.49793
ltoes 31.5667
68
root 10.8688 17.967 -30.1333 26.7841 -87.3562 -23.119
lowerback -7.63243 0.278181 1.54453
upperback -2.37681 0.219619 -0.982879
thorax 1.83331 0.0837116 -1.86201
lowerneck -2.10754 -0.908023 -0.228958
upperneck 1.18319 -1.29309 3.92738
head 0.744593 -0.617448 1.23198
rclavicle 5.96354e-016 -7.15625e-015
rhumerus -11.6879 -31.7312 -10.2686
rradius 19.3669
rwrist 19.476
rhand -12.5338 -46.5728
rfingers 7.12502
rthumb 13.5426 -76.1124
lclavicle 5.96354e-016 -7.15625e-015
lhumerus 0.668526 10.8179 8.78184
lradius 19.9916
lwrist 5.48058
lhand -6.45408 -5.22403
lfingers 7.12502
lthumb 19.3958 23.8286
rfemur 9.57619 15.8761 14.2983
rtibia -2.72943
rfoot -27.5911 -31.2545
rtoes 3.19298
lfemur 8.70288 -8.0071 -5.05958
ltibia -2.93963
lfoot -27.8236 7.36069
ltoes 32.0008
69
root 10.8724 17.9693 -30.1323 24.1015 -87.4096 -20.4369
lowerback -7.57512 0.267928 1.44765
upperback -2.38793 0.214518 -1.02035
thorax 1.78968 0.080504 -1.84661
lowerneck -2.1152 -0.900039 -0.300733
upperneck 1.24448 -1.28386 3.98887
head 0.766121 -0.611761 1.2639
rclavicle -1.83876e-015 -3.97569e-016
rhumerus -11.6426 -31.5053 -10.2748
rradius 19.349
rwrist 19.2915
rhand -12.6125 -46.5512
rfingers 7.12502
rthumb 13.4667 -76.0958
lclavicle -1.83876e-015 -3.97569e-016
lhumerus 0.638635 10.6768 8.75064
lradius 19.9871
lwrist 5.57752
lhand -6.31733 -5.10513
lfingers 7.12502
lthumb 19.5273 23.9343
rfemur 9.49089 15.369 14.0222
rtibia -2.73094
rfoot -26.2964 -31.5262
rtoes -0.689784
lfemur 8.70453 -8.24069 -5.31843
ltibia -2.92605
lfoot -28.0864 7.4301
ltoes 31.9822
70
root 10.8772 17.9707 -30.1314 23.7047 -87.4216 -20.0449
lowerback -7.49712 0.28455 1.47262
upperback -2.4084 0.235974 -1.04184
thorax 1.7264 0.0903413 -1.88095
lowerneck -2.02035 -0.940169 -0.364912
upperneck 1.21567 -1.33574 4.06765
head 0.743843 -0.638826 1.29926
rclavicle 7.45443e-016 2.78299e-015
rhumerus -11.6995 -31.5473 -10.2241
rradius 19.3619
rwrist 19.3611
rhand -12.5674 -46.5436
rfingers 7.12502
rthumb 13.5101 -76.0854
lclavicle 7.45443e-016 2.78299e-015
lhumerus 0.626404 10.3749 8.70139
lradius 20.023
lwrist 5.83358
lhand -6.36952 -5.02988
lfingers 7.12502
lthumb 19.4771 24.0146
rfemur 9.47382 15.3703 13.983
rtibia -2.72484
rfoot -26.344 -31.456
rtoes -0.552277
lfemur 8.72907 -8.50692 -5.43228
ltibia -2.96735
lfoot -28.3974 7.34113
ltoes 32.6388
71
root 10.8823 17.9709 -30.1286 27.3078 -87.3607 -23.6331
lowerback -7.43362 0.284167 1.76416
upperback -2.44426 0.214423 -1.02438
thorax 1.65404 0.0782476 -2.02901
lowerneck -1.94841 -0.947057 -0.4191
upperneck 1.23493 -1.34524 4.13607
head 0.739201 -0.6439 1.33029
rclavicle -1.68967e-015 -1.59028e-015
rhumerus -11.6519 -31.7429 -10.2789
rradius 19.3529
rwrist 19.5953
rhand -12.4713 -46.5514
rfingers 7.12502
rthumb 13.6028 -76.087
lclavicle -1.68967e-015 -1.59028e-015
lhumerus 0.517475 10.1301 8.57274
lradius 20.0666
lwrist 6.0204
lhand -6.47197 -5.02839
lfingers 7.12502
lthumb 19.3786 24.026
rfemur 9.42683 15.4382 14.1881
rtibia -2.68646
rfoot -26.5638 -31.3496
rtoes 0.401947
lfemur 8.76024 -8.8438 -5.32094
ltibia -3.06991
lfoot -28.7171 7.40814
ltoes 32.8692
72
root 10.8861 17.9716 -30.1258 29.924 -87.3042 -26.2189
lowerback -7.39092 0.264851 2.0171
upperback -2.49151 0.170273 -1.01531
thorax 1.57995 0.0542466 -2.16591
lowerneck -1.9017 -0.948048 -0.484259
upperneck 1.30689 -1.3493 4.22501
head 0.755448 -0.645244 1.36987
rclavicle -1.61513e-015 2.38542e-015
rhumerus -11.5388 -31.8314 -10.3846
rradius 19.3201
rwrist 19.7748
rhand -12.4334 -46.4483
rfingers 7.12502
rthumb 13.6393 -75.9814
lclavicle -1.61513e-015 2.38542e-015
lhumerus 0.427495 10.229 8.5139
lradius 20.0618
lwrist 5.86829
lhand -6.45931 -5.02432
lfingers 7.12502
lthumb 19.3908 24.0289
rfemur 9.36705 15.4686 14.3582
rtibia -2.66606
rfoot -26.3724 -31.4904
rtoes -0.147598
lfemur 8.75355 -9.03701 -5.21653
ltibia -3.13884
lfoot -28.8178 7.8161
ltoes 31.6256
73
root 10.8892 17.9724 -30.1261 30.5474 -87.3095 -26.8164
lowerback -7.3557 0.265015 2.04815
upperback -2.52937 0.167993 -1.00434
thorax 1.5213 0.0516431 -2.17223
lowerneck -1.85771 -0.973852 -0.473723
upperneck 1.3355 -1.38423 4.20266
head 0.757396 -0.662924 1.36067
rclavicle 8.94531e-016 3.97569e-016
rhumerus -11.5047 -31.6178 -10.3915
rradius 19.3177
rwrist 19.6457
rhand -12.4038 -46.4159
rfingers 7.12502
rthumb 13.6678 -75.9471
lclavicle 8.94531e-016 3.97569e-016
lhumerus 0.422676 10.2981 8.54342
lradius 20.037
lwrist 5.76277
lhand -6.4408 -5.03803
lfingers 7.12502
lthumb 19.4086 24.0134
rfemur 9.31295 15.4416 14.3775
rtibia -2.65724
rfoot -26.1235 -31.5983
rtoes -0.812981
lfemur 8.7587 -9.20037 -5.23844
ltibia -3.19127
lfoot -28.9588 7.95744
ltoes 31.4366
74
root 10.8927 17.9729 -30.1279 31.7929 -87.3266 -28.0515
lowerback -7.31685 0.267485 2.06061
upperback -2.55416 0.170081 -0.966188
thorax 1.47425 0.05179 -2.13964
lowerneck -1.88848 -0.967734 -0.467682
upperneck 1.41362 -1.3785 4.17562
head 0.786392 -0.658829 1.35121
rclavicle 1.44119e-015 1.39149e-014
rhumerus -11.458 -31.5209 -10.4025
rradius 19.341
rwrist 19.5577
rhand -12.4179 -46.4101
rfingers 7.12502
rthumb 13.6543 -75.9422
lclavicle 1.44119e-015 1.39149e-014
lhumerus 0.358892 10.1488 8.527
lradius 20.0626
lwrist 5.93199
lhand -6.4647 -4.96188
lfingers 7.12502
lthumb 19.3856 24.0918
rfemur 9.29076 15.5429 14.447
rtibia -2.66182
rfoot -26.2309 -31.5614
rtoes -0.0641425
lfemur 8.78146 -9.35035 -5.2274
ltibia -3.24336
lfoot -29.2025 7.75981
ltoes 32.4271
